# Blender v2.82 (sub 7) OBJ File: ''
# www.blender.org
mtllib sphere.mtl
o Sphere
v 0.000000 0.772757 -0.643147
v 0.000000 0.457900 -0.893869
v 0.000000 0.088139 -0.999780
v 0.000000 -0.298945 -0.959866
v 0.198417 0.773405 -0.612177
v 0.249859 0.481859 -0.848903
v 0.272920 0.048319 -0.978318
v 0.351512 -0.347453 -0.880056
v 0.209638 -0.638667 -0.750535
v 0.727200 0.092579 -0.700567
v 0.195914 -0.895133 -0.420911
v 0.547775 -0.106308 -0.845577
v 0.446181 -0.784321 -0.450843
v 0.586975 0.511749 -0.645451
v 0.759355 0.318417 -0.579116
v 0.745480 -0.316658 -0.600834
v 0.491976 0.789339 -0.403754
v 0.636159 -0.641344 -0.454954
v 0.181262 0.969703 -0.213115
v 0.850881 0.468326 -0.268638
v 0.962005 0.107599 -0.283089
v 0.937146 -0.196721 -0.302326
v 0.851896 -0.475432 -0.255415
v 0.457576 0.894590 -0.095181
v 0.613525 -0.801113 -0.042649
v 0.992530 0.211812 0.059389
v 0.885356 -0.475433 0.084310
v 0.265302 -0.970749 -0.100084
v 0.765270 0.655952 0.121130
v 0.987702 -0.100271 0.198552
v 0.435176 0.894304 0.168722
v 0.876439 0.196721 0.448886
v 0.848372 -0.316660 0.443853
v 0.700656 -0.651783 0.320504
v 0.613179 0.638667 0.480898
v 0.751591 0.358285 0.591328
v 0.780443 -0.107597 0.629684
v 0.553208 -0.563562 0.639273
v 0.000000 -1.000000 0.000000
v 0.367808 0.139059 0.936972
v 0.474068 -0.099051 0.885705
v 0.205823 -0.968973 0.201763
v 0.143180 0.982219 0.143181
v 0.227319 0.889913 0.418963
v 0.302955 0.656645 0.706443
v 0.260336 0.455459 0.860908
v 0.269816 -0.316659 0.918663
v 0.000000 0.775245 0.636088
v 0.000000 0.480539 0.883051
v 0.000000 0.098526 0.999630
v 0.000000 -0.291793 0.961157
v 0.145418 -0.710063 0.711090
v 0.340023 -0.853264 0.434257
v -0.260336 0.455459 0.860908
v -0.269816 -0.316659 0.918663
v -0.185435 -0.619880 0.775573
v -0.302955 0.656645 0.706443
v -0.367808 0.139059 0.936972
v -0.474068 -0.099051 0.885705
v 0.000000 0.999878 -0.168471
v -0.227319 0.889913 0.418963
v -0.553208 -0.563562 0.639273
v -0.780443 -0.107597 0.629684
v -0.751591 0.358285 0.591328
v -0.876439 0.196721 0.448886
v -0.848372 -0.316660 0.443853
v -0.700656 -0.651783 0.320504
v -0.340023 -0.853264 0.434257
v -0.143180 0.982219 0.143181
v -0.435176 0.894304 0.168722
v -0.992530 0.211812 0.059389
v -0.987702 -0.100271 0.198552
v -0.885356 -0.475433 0.084310
v -0.765270 0.655952 0.121130
v -0.205823 -0.968973 0.201763
v -0.850881 0.468326 -0.268638
v -0.962005 0.107599 -0.283089
v -0.937146 -0.196721 -0.302326
v -0.851896 -0.475432 -0.255415
v -0.613525 -0.801113 -0.042649
v -0.457576 0.894590 -0.095181
v -0.759355 0.318417 -0.579116
v -0.745480 -0.316658 -0.600834
v -0.491976 0.789339 -0.403754
v -0.586975 0.511749 -0.645451
v -0.727200 0.092579 -0.700567
v -0.552838 -0.722053 -0.455280
v -0.265302 -0.970749 -0.100084
v -0.547775 -0.106308 -0.845577
v -0.181262 0.969703 -0.213115
v -0.198417 0.773405 -0.612177
v -0.249859 0.481859 -0.848903
v -0.272920 0.048319 -0.978318
v -0.351512 -0.347453 -0.880056
v -0.209638 -0.638667 -0.750535
v -0.195914 -0.895133 -0.420911
v 0.000000 -0.725307 -0.704216
vt 0.750000 0.527972
vt 0.711691 0.517436
vt 0.750000 0.403879
vt 0.750000 0.779042
vt 0.634427 0.912423
vt 0.701787 0.779441
vt 0.704230 0.282012
vt 0.750000 0.245437
vt 0.704558 0.656241
vt 0.750000 0.650659
vt 0.678192 0.152676
vt 0.585622 0.108935
vt 0.658276 0.469594
vt 0.689339 0.392089
vt 0.623253 0.216604
vt 0.633326 0.672562
vt 0.622867 0.528759
vt 0.611212 0.779958
vt 0.605944 0.396147
vt 0.594290 0.285038
vt 0.549682 0.437500
vt 0.547505 0.653989
vt 0.512592 0.208471
vt 0.604155 0.600527
vt 0.549121 0.532377
vt 0.546875 0.000000
vt 0.381926 0.091138
vt 0.539588 0.844201
vt 0.475172 0.720589
vt 0.549678 0.344038
vt 0.488161 0.565292
vt 0.467827 0.467395
vt 0.443143 0.847312
vt 0.484414 0.344178
vt 0.484374 1.000000
vt 0.375302 0.937500
vt 0.429123 0.274832
vt 0.425306 0.396147
vt 0.351222 0.172316
vt 0.393438 0.612677
vt 0.424682 0.562500
vt 0.389986 0.467939
vt 0.391730 0.717988
vt 0.361865 0.312251
vt 0.328750 0.841363
vt 0.328048 0.471493
vt 0.317025 0.726534
vt 0.290099 0.394360
vt 0.277867 0.256649
vt 0.290008 0.644807
vt 0.250000 0.658651
vt 0.307802 0.549875
vt 0.250000 0.531272
vt 0.265625 1.000000
vt 0.179949 0.838225
vt 0.265625 0.000000
vt 0.250000 0.406180
vt 0.250000 0.781284
vt 0.213398 0.290109
vt 0.234375 1.000000
vt 0.124698 0.937500
vt 0.234375 0.000000
vt 0.120739 0.091138
vt 0.209901 0.394360
vt 0.182975 0.726534
vt 0.209992 0.644807
vt 0.192198 0.549875
vt 0.171952 0.471493
vt 0.138135 0.312251
vt 0.121274 0.633075
vt 0.110014 0.467939
vt 0.056857 0.847312
vt 0.074694 0.396147
vt 0.070877 0.274832
vt 0.075318 0.562500
vt 0.032173 0.467395
vt 0.028095 0.720589
vt 0.009611 0.208471
vt 0.144185 0.187500
vt 0.011839 0.565292
vt 0.012821 0.125000
vt 0.015625 1.000000
vt 0.000000 0.937500
vt 0.015586 0.344178
vt 0.991145 0.722919
vt 0.952495 0.653989
vt 1.000000 0.565292
vt 0.950879 0.532377
vt 1.000000 0.437500
vt 0.950318 0.437500
vt 1.000000 0.875000
vt 0.865573 0.912423
vt 0.960412 0.844201
vt 0.950322 0.344037
vt 1.000000 0.344178
vt 0.953125 0.000000
vt 0.989627 0.062500
vt 0.917475 0.096398
vt 0.890923 0.251719
vt 0.981988 0.208471
vt 0.894056 0.396147
vt 0.888788 0.779958
vt 0.866674 0.672562
vt 0.877133 0.528759
vt 0.841724 0.469594
vt 0.821808 0.152675
vt 0.809259 0.387697
vt 0.798213 0.779441
vt 0.795770 0.282012
vt 0.795442 0.656241
vt 0.788309 0.517436
vt 0.765625 0.000000
vt 0.757030 0.946781
vt 0.000000 0.812500
vt 0.895845 0.600527
vn 0.0631 -0.1024 -0.9927
vn 0.0655 0.8965 -0.4382
vn 0.0230 -0.5141 -0.8574
vn 0.0808 0.6209 -0.7797
vn -0.6068 -0.7929 -0.0556
vn 0.1150 0.2735 -0.9550
vn 0.3559 -0.1580 -0.9211
vn 0.5092 -0.5445 -0.6665
vn 0.3618 0.6253 -0.6914
vn 0.4828 0.2710 -0.8328
vn 0.2499 0.8731 -0.4187
vn 0.5600 -0.3483 -0.7517
vn 0.3427 -0.4786 -0.8084
vn 0.3589 -0.8882 -0.2870
vn 0.7099 -0.1367 -0.6909
vn 0.8538 -0.0870 -0.5133
vn 0.6885 0.5957 -0.4136
vn 0.5757 -0.7726 -0.2678
vn 0.7358 0.4990 -0.4578
vn 0.8734 0.2849 -0.3950
vn 0.8608 0.1405 -0.4892
vn 0.1206 -0.9923 0.0296
vn 0.6756 0.7175 -0.1694
vn 0.7139 -0.6653 -0.2186
vn 0.9944 -0.0554 -0.0897
vn 0.2533 0.9671 0.0225
vn 0.9476 -0.3056 -0.0933
vn 0.1600 0.9870 -0.0176
vn 0.7466 -0.6589 0.0918
vn 0.9167 -0.3221 0.2365
vn 0.8296 -0.4742 0.2947
vn 0.5268 -0.8231 0.2121
vn 0.8694 0.4056 0.2821
vn 0.5329 -0.8390 0.1099
vn 0.8627 0.4254 0.2736
vn 0.9011 -0.0272 0.4327
vn 0.5878 0.7572 0.2849
vn 0.6987 -0.3349 0.6322
vn 0.7281 -0.4953 0.4739
vn 0.2615 0.9365 0.2337
vn 0.6395 0.1023 0.7619
vn 0.4120 0.7576 0.5063
vn 0.3258 -0.5197 0.7898
vn 0.4953 0.4606 0.7366
vn 0.4924 -0.3409 0.8008
vn 0.1246 0.5875 0.7996
vn 0.1297 0.2894 0.9484
vn -0.1512 0.9806 0.1250
vn -0.4913 -0.6328 0.5985
vn 0.1487 -0.0716 0.9863
vn 0.0000 0.9483 0.3174
vn 0.0000 0.8843 0.4670
vn 0.0304 -0.5051 0.8625
vn 0.8035 0.4460 0.3944
vn 0.0984 -0.9636 0.2486
vn -0.1461 -0.0970 0.9845
vn -0.1701 0.7866 0.5935
vn -0.1246 0.5875 0.7996
vn -0.0057 -0.8898 0.4563
vn -0.1321 0.2739 0.9526
vn -0.4924 -0.3409 0.8008
vn -0.4953 0.4606 0.7366
vn -0.6395 0.1023 0.7619
vn -0.5749 0.7028 0.4190
vn -0.2615 0.9365 0.2337
vn -0.6987 -0.3349 0.6322
vn -0.7281 -0.4953 0.4739
vn -0.9011 -0.0272 0.4327
vn -0.5638 0.6903 0.4534
vn -0.5268 -0.8231 0.2121
vn -0.8694 0.4056 0.2821
vn -0.4243 -0.9011 0.0889
vn -0.1600 0.9870 -0.0176
vn -0.7466 -0.6589 0.0918
vn -0.8885 0.4582 -0.0254
vn -0.9391 0.2963 -0.1739
vn -0.9934 -0.0757 -0.0857
vn -0.2533 0.9671 0.0225
vn -0.9673 -0.2349 -0.0953
vn -0.1206 -0.9923 0.0296
vn -0.7065 -0.6686 -0.2320
vn -0.7274 -0.5104 -0.4587
vn -0.6885 0.5957 -0.4136
vn -0.8538 -0.0870 -0.5133
vn -0.8492 -0.3292 -0.4129
vn -0.7099 -0.1367 -0.6909
vn -0.3947 -0.8716 -0.2908
vn -0.5600 -0.3483 -0.7517
vn -0.2499 0.8731 -0.4187
vn -0.4699 -0.5396 -0.6986
vn -0.3618 0.6253 -0.6914
vn -0.4821 0.2740 -0.8322
vn -0.3559 -0.1580 -0.9211
vn 0.0000 -0.9598 -0.2805
vn -0.1905 -0.2008 -0.9609
vn -0.0643 0.9002 -0.4307
vn -0.0230 -0.5141 -0.8574
vn -0.0808 0.6209 -0.7797
vn -0.1897 -0.7787 -0.5980
vn -0.1150 0.2735 -0.9550
vn 0.0000 -0.9733 -0.2294
vn 0.1905 -0.2008 -0.9609
vn 0.0438 0.9012 -0.4312
vn 0.1364 -0.4573 -0.8788
vn 0.1167 0.6384 -0.7608
vn 0.1897 -0.7787 -0.5980
vn 0.1425 0.2901 -0.9463
vn 0.4021 0.6756 -0.6179
vn 0.2691 -0.7655 -0.5844
vn 0.4789 0.2744 -0.8339
vn 0.5027 0.1652 -0.8485
vn 0.5137 -0.5421 -0.6650
vn 0.6182 0.3022 -0.7256
vn 0.3569 0.8956 -0.2657
vn 0.8715 -0.0403 -0.4887
vn 0.8492 -0.3292 -0.4129
vn 0.7672 -0.4594 -0.4475
vn 0.4564 -0.8615 -0.2225
vn 0.6928 0.6974 -0.1835
vn 0.9949 -0.0771 -0.0652
vn 0.9673 -0.2487 -0.0497
vn 0.7800 -0.6211 -0.0768
vn 0.8885 0.4582 -0.0254
vn 0.9391 0.2963 -0.1739
vn 0.2885 0.9575 -0.0028
vn 0.5895 0.8062 0.0509
vn 0.4149 -0.8991 0.1397
vn 0.9509 0.1136 0.2878
vn 0.7762 0.5223 0.3532
vn 0.8982 -0.0906 0.4302
vn 0.4565 0.7981 0.3932
vn 0.5396 -0.7134 0.4470
vn 0.8010 0.0982 0.5906
vn 0.6279 0.1145 0.7698
vn 0.6093 -0.2881 0.7387
vn 0.5209 0.5229 0.6748
vn 0.3602 -0.7008 0.6157
vn 0.5026 0.3597 0.7862
vn 0.2549 -0.0935 0.9624
vn 0.1701 0.7866 0.5935
vn 0.0733 0.6406 0.7644
vn 0.1072 0.2667 0.9578
vn 0.1775 -0.0965 0.9794
vn 0.0919 -0.4873 0.8684
vn -0.1757 -0.0772 0.9814
vn -0.0988 -0.4470 0.8890
vn -0.0733 0.6406 0.7644
vn -0.1023 -0.7990 0.5926
vn 0.0075 -0.8935 0.4490
vn -0.1088 0.2901 0.9508
vn -0.2549 -0.0935 0.9624
vn -0.3686 -0.4786 0.7969
vn -0.3406 -0.6971 0.6309
vn -0.5026 0.3597 0.7862
vn -0.6279 0.1145 0.7698
vn -0.6093 -0.2881 0.7387
vn -0.5487 0.6928 0.4679
vn -0.5396 -0.7134 0.4470
vn -0.8010 0.0982 0.5906
vn -0.8982 -0.0906 0.4302
vn -0.9167 -0.3221 0.2365
vn -0.8296 -0.4742 0.2947
vn -0.4599 -0.8718 0.1684
vn -0.8627 0.4254 0.2736
vn -0.9509 0.1136 0.2878
vn -0.2885 0.9575 -0.0028
vn -0.5895 0.8062 0.0509
vn -0.7800 -0.6211 -0.0768
vn -0.9961 -0.0484 -0.0740
vn -0.9537 -0.2982 -0.0388
vn -0.6756 0.7175 -0.1694
vn -0.6928 0.6974 -0.1835
vn -0.7358 0.4990 -0.4578
vn -0.4567 -0.8589 -0.2317
vn -0.8734 0.2849 -0.3950
vn -0.8608 0.1405 -0.4892
vn -0.8715 -0.0403 -0.4887
vn -0.3569 0.8956 -0.2657
vn -0.6182 0.3022 -0.7256
vn -0.5271 -0.4978 -0.6888
vn -0.5027 0.1652 -0.8485
vn -0.4021 0.6756 -0.6179
vn -0.3113 -0.7563 -0.5755
vn -0.4798 0.2703 -0.8347
vn -0.0631 -0.1024 -0.9927
vn -0.0411 0.8973 -0.4396
vn -0.1364 -0.4573 -0.8788
vn -0.1167 0.6384 -0.7608
vn 0.1521 -0.8906 -0.4286
vn -0.1425 0.2901 -0.9463
usemtl None
s off
f 3/1/1 7/2/1 4/3/1
f 1/4/2 19/5/2 5/6/2
f 4/3/3 9/7/3 97/8/3
f 1/4/4 6/9/4 2/10/4
f 97/8/5 11/11/5 28/12/5
f 2/10/6 7/2/6 3/1/6
f 7/2/7 12/13/7 8/14/7
f 9/7/8 8/14/8 13/15/8
f 5/6/9 14/16/9 6/9/9
f 7/2/10 14/16/10 10/17/10
f 19/5/11 17/18/11 5/6/11
f 12/13/12 16/19/12 8/14/12
f 13/15/13 16/19/13 18/20/13
f 11/11/14 13/15/14 28/12/14
f 10/17/15 16/19/15 12/13/15
f 10/17/16 22/21/16 16/19/16
f 14/16/17 17/18/17 20/22/17
f 18/20/18 25/23/18 13/15/18
f 14/16/19 20/22/19 15/24/19
f 15/24/20 20/22/20 21/25/20
f 15/24/21 21/25/21 10/17/21
f 39/26/22 28/12/22 42/27/22
f 17/18/23 24/28/23 29/29/23
f 18/20/24 23/30/24 25/23/24
f 22/21/25 26/31/25 30/32/25
f 19/5/26 31/33/26 24/28/26
f 22/21/27 27/34/27 23/30/27
f 19/5/28 60/35/28 43/36/28
f 27/34/29 34/37/29 25/23/29
f 30/32/30 33/38/30 27/34/30
f 27/34/31 33/38/31 34/37/31
f 34/37/32 53/39/32 25/23/32
f 29/29/33 36/40/33 26/31/33
f 28/12/34 53/39/34 42/27/34
f 26/31/35 36/40/35 32/41/35
f 32/41/36 37/42/36 30/32/36
f 31/33/37 35/43/37 29/29/37
f 37/42/38 38/44/38 33/38/38
f 33/38/39 38/44/39 34/37/39
f 43/36/40 44/45/40 31/33/40
f 36/40/41 41/46/41 37/42/41
f 35/43/42 44/45/42 45/47/42
f 38/44/43 47/48/43 52/49/43
f 45/47/44 46/50/44 36/40/44
f 41/46/45 47/48/45 38/44/45
f 45/47/46 49/51/46 46/50/46
f 40/52/47 49/51/47 50/53/47
f 43/36/48 60/54/48 61/55/48
f 39/56/49 42/27/49 53/39/49
f 40/52/50 51/57/50 47/48/50
f 43/36/51 61/55/51 44/45/51
f 44/45/52 61/55/52 48/58/52
f 52/49/53 51/57/53 56/59/53
f 61/55/54 60/60/54 69/61/54
f 39/62/55 53/39/55 75/63/55
f 50/53/56 55/64/56 51/57/56
f 48/58/57 61/55/57 57/65/57
f 49/51/58 57/65/58 54/66/58
f 52/49/59 75/63/59 53/39/59
f 50/53/60 54/66/60 58/67/60
f 59/68/61 62/69/61 55/64/61
f 57/65/62 64/70/62 54/66/62
f 59/68/63 64/70/63 63/71/63
f 57/65/64 61/55/64 64/70/64
f 69/61/65 70/72/65 61/55/65
f 63/71/66 66/73/66 62/69/66
f 62/69/67 66/73/67 67/74/67
f 65/75/68 72/76/68 63/71/68
f 64/70/69 70/72/69 74/77/69
f 67/74/70 80/78/70 68/79/70
f 74/77/71 71/80/71 64/70/71
f 75/63/72 80/78/72 88/81/72
f 69/61/73 60/82/73 90/83/73
f 73/84/74 80/78/74 67/74/74
f 74/85/75 76/86/75 71/87/75
f 71/87/76 76/86/76 77/88/76
f 72/89/77 77/88/77 78/90/77
f 70/91/78 90/92/78 81/93/78
f 72/89/79 79/94/79 73/95/79
f 39/96/80 75/97/80 88/98/80
f 79/94/81 87/99/81 80/100/81
f 79/94/82 83/101/82 87/99/82
f 76/86/83 84/102/83 85/103/83
f 78/90/84 86/104/84 83/101/84
f 78/90/85 83/101/85 79/94/85
f 83/101/86 86/104/86 89/105/86
f 87/99/87 96/106/87 88/98/87
f 89/105/88 94/107/88 83/101/88
f 84/102/89 90/92/89 91/108/89
f 94/107/90 95/109/90 87/99/90
f 85/103/91 91/108/91 92/110/91
f 86/104/92 92/110/92 93/111/92
f 89/105/93 93/111/93 94/107/93
f 39/112/94 88/98/94 28/12/94
f 93/111/95 4/3/95 94/107/95
f 91/108/96 60/113/96 1/4/96
f 95/109/97 4/3/97 97/8/97
f 92/110/98 1/4/98 2/10/98
f 95/109/99 97/8/99 96/106/99
f 93/111/100 2/10/100 3/1/100
f 96/106/101 28/12/101 88/98/101
f 4/3/102 7/2/102 8/14/102
f 1/4/103 60/113/103 19/5/103
f 4/3/104 8/14/104 9/7/104
f 1/4/105 5/6/105 6/9/105
f 97/8/106 9/7/106 11/11/106
f 2/10/107 6/9/107 7/2/107
f 5/6/108 17/18/108 14/16/108
f 9/7/109 13/15/109 11/11/109
f 7/2/110 6/9/110 14/16/110
f 7/2/111 10/17/111 12/13/111
f 13/15/112 8/14/112 16/19/112
f 14/16/113 15/24/113 10/17/113
f 19/5/114 24/28/114 17/18/114
f 10/17/115 21/25/115 22/21/115
f 16/19/116 22/21/116 23/30/116
f 18/20/117 16/19/117 23/30/117
f 28/12/118 13/15/118 25/23/118
f 17/18/119 29/29/119 20/22/119
f 22/21/120 21/25/120 26/31/120
f 22/21/121 30/32/121 27/34/121
f 23/30/122 27/34/122 25/23/122
f 20/22/123 29/29/123 26/31/123
f 21/25/124 20/22/124 26/31/124
f 31/33/125 19/5/125 43/36/125
f 24/28/126 31/33/126 29/29/126
f 28/12/127 25/23/127 53/39/127
f 26/31/128 32/41/128 30/32/128
f 29/29/129 35/43/129 36/40/129
f 33/38/130 30/32/130 37/42/130
f 31/33/131 44/45/131 35/43/131
f 53/39/132 34/37/132 38/44/132
f 32/41/133 36/40/133 37/42/133
f 36/40/134 40/52/134 41/46/134
f 37/42/135 41/46/135 38/44/135
f 35/43/136 45/47/136 36/40/136
f 53/39/137 38/44/137 52/49/137
f 40/52/138 36/40/138 46/50/138
f 41/46/139 40/52/139 47/48/139
f 45/47/140 44/45/140 48/58/140
f 45/47/141 48/58/141 49/51/141
f 40/52/142 46/50/142 49/51/142
f 40/52/143 50/53/143 51/57/143
f 52/49/144 47/48/144 51/57/144
f 50/53/145 58/67/145 55/64/145
f 56/59/146 51/57/146 55/64/146
f 49/51/147 48/58/147 57/65/147
f 52/49/148 56/59/148 68/79/148
f 52/49/149 68/79/149 75/63/149
f 50/53/150 49/51/150 54/66/150
f 55/64/151 58/67/151 59/68/151
f 56/59/152 55/64/152 62/69/152
f 68/79/153 56/59/153 62/69/153
f 58/67/154 54/66/154 64/70/154
f 59/68/155 58/67/155 64/70/155
f 59/68/156 63/71/156 62/69/156
f 64/70/157 61/55/157 70/72/157
f 62/69/158 67/74/158 68/79/158
f 64/70/159 65/75/159 63/71/159
f 63/71/160 72/76/160 66/73/160
f 66/73/161 72/76/161 73/84/161
f 67/74/162 66/73/162 73/84/162
f 75/63/163 68/79/163 80/78/163
f 65/75/164 64/70/164 71/80/164
f 65/75/165 71/80/165 72/76/165
f 70/72/166 69/61/166 90/83/166
f 74/77/167 70/72/167 81/114/167
f 73/95/168 79/94/168 80/100/168
f 72/89/169 71/87/169 77/88/169
f 72/89/170 78/90/170 79/94/170
f 74/85/171 81/93/171 84/102/171
f 74/85/172 84/102/172 76/86/172
f 76/86/173 85/103/173 82/115/173
f 88/98/174 80/100/174 87/99/174
f 77/88/175 76/86/175 82/115/175
f 77/88/176 82/115/176 86/104/176
f 78/90/177 77/88/177 86/104/177
f 81/93/178 90/92/178 84/102/178
f 86/104/179 82/115/179 85/103/179
f 87/99/180 83/101/180 94/107/180
f 86/104/181 93/111/181 89/105/181
f 85/103/182 84/102/182 91/108/182
f 87/99/183 95/109/183 96/106/183
f 86/104/184 85/103/184 92/110/184
f 93/111/185 3/1/185 4/3/185
f 91/108/186 90/92/186 60/113/186
f 95/109/187 94/107/187 4/3/187
f 92/110/188 91/108/188 1/4/188
f 96/106/189 97/8/189 28/12/189
f 93/111/190 92/110/190 2/10/190
